<?xml version="1.0" encoding="UTF-8" standalone="no"?>
<!-- Created with Inkscape (http://www.inkscape.org/) -->

<svg
   xmlns:dc="http://purl.org/dc/elements/1.1/"
   xmlns:cc="http://creativecommons.org/ns#"
   xmlns:rdf="http://www.w3.org/1999/02/22-rdf-syntax-ns#"
   xmlns:svg="http://www.w3.org/2000/svg"
   xmlns="http://www.w3.org/2000/svg"
   xmlns:sodipodi="http://sodipodi.sourceforge.net/DTD/sodipodi-0.dtd"
   xmlns:inkscape="http://www.inkscape.org/namespaces/inkscape"
   width="600"
   height="600"
   id="svg2"
   version="1.1"
   inkscape:version="0.48.0 r9654"
   inkscape:export-filename="/home/levhita/Escritorio/maslogos.png"
   inkscape:export-xdpi="90"
   inkscape:export-ydpi="90"
   sodipodi:docname="dibujo-2.svg">
  <defs
     id="defs4">
    <inkscape:perspective
       sodipodi:type="inkscape:persp3d"
       inkscape:vp_x="-83 : 287.5 : 1"
       inkscape:vp_y="0 : 1000 : 0"
       inkscape:vp_z="288 : 285 : 1"
       inkscape:persp3d-origin="300 : 200 : 1"
       id="perspective2985" />
  </defs>
  <sodipodi:namedview
     id="base"
     pagecolor="#ffffff"
     bordercolor="#666666"
     borderopacity="1.0"
     inkscape:pageopacity="0.0"
     inkscape:pageshadow="2"
     inkscape:zoom="2.8284271"
     inkscape:cx="397.11614"
     inkscape:cy="472.52319"
     inkscape:document-units="px"
     inkscape:current-layer="layer1"
     showgrid="false"
     showguides="false"
     inkscape:guide-bbox="true"
     inkscape:window-width="1366"
     inkscape:window-height="715"
     inkscape:window-x="0"
     inkscape:window-y="24"
     inkscape:window-maximized="1"
     inkscape:snap-global="false">
    <sodipodi:guide
       orientation="1,0"
       position="97.934289,155.56349"
       id="guide3256" />
    <sodipodi:guide
       orientation="1,0"
       position="250.66935,144.95689"
       id="guide3258" />
    <sodipodi:guide
       orientation="0,1"
       position="371.76139,275.94842"
       id="guide4145" />
    <sodipodi:guide
       orientation="1,0"
       position="291.74999,500.74999"
       id="guide3056" />
    <sodipodi:guide
       orientation="1,0"
       position="453.43221,485.95912"
       id="guide3076" />
    <sodipodi:guide
       orientation="1,0"
       position="344.23437,525.70312"
       id="guide3101" />
    <sodipodi:guide
       orientation="1,0"
       position="401.375,530.375"
       id="guide3103" />
    <sodipodi:guide
       orientation="1,0"
       position="372.85937,490.125"
       id="guide3878" />
  </sodipodi:namedview>
  <metadata
     id="metadata7">
    <rdf:RDF>
      <cc:Work
         rdf:about="">
        <dc:format>image/svg+xml</dc:format>
        <dc:type
           rdf:resource="http://purl.org/dc/dcmitype/StillImage" />
        <dc:title></dc:title>
      </cc:Work>
    </rdf:RDF>
  </metadata>
  <g
     inkscape:label="Capa 1"
     inkscape:groupmode="layer"
     id="layer1"
     transform="translate(0,-452.36218)">
    <g
       id="g3223"
       transform="matrix(0.42151874,0,0,0.4683928,41.12886,125.35989)">
      <path
         d="m 65.33667,867.21215 55.47385,38.27609 32.16891,-26.57682 -54.737939,-26.45493 z"
         style="fill:#afafde;fill-opacity:1;fill-rule:evenodd;stroke:none"
         id="path3197"
         inkscape:connector-curvature="0" />
      <path
         d="m 65.33667,774.19074 0,93.02141 32.904821,-14.75566 0,-79.27486 z"
         style="fill:#353564;fill-opacity:1;fill-rule:evenodd;stroke:none"
         id="path3199"
         inkscape:connector-curvature="0" />
      <path
         d="m 98.241491,773.18163 54.737939,2.51261 0,103.21718 -54.737939,-26.45493 z"
         style="fill:#e9e9ff;fill-opacity:1;fill-rule:evenodd;stroke:none"
         id="path3201"
         inkscape:connector-curvature="0" />
      <path
         d="m 65.33667,774.19074 55.47385,3.48862 32.16891,-1.98512 -54.737939,-2.51261 z"
         style="fill:#4d4d9f;fill-opacity:1;fill-rule:evenodd;stroke:none"
         id="path3203"
         inkscape:connector-curvature="0" />
      <path
         d="m 65.33667,774.19074 55.47385,3.48862 0,127.80888 -55.47385,-38.27609 z"
         style="fill:#8686bf;fill-opacity:1;fill-rule:evenodd;stroke:none"
         id="path3207"
         inkscape:connector-curvature="0" />
      <path
         d="M 35.5,845.94113 94.499998,886.30955 157.64644,847.49247 97.204212,826.73854 z"
         style="fill:#afafde;fill-opacity:1;fill-rule:evenodd;stroke:none"
         id="path3177"
         inkscape:connector-curvature="0" />
      <path
         d="m 35.5,800.19598 0,45.74515 61.704212,-19.20259 0,-34.56626 z"
         style="fill:#353564;fill-opacity:1;fill-rule:evenodd;stroke:none"
         id="path3179"
         inkscape:connector-curvature="0" />
      <path
         d="m 94.499998,817.78834 0,68.52121 63.146442,-38.81708 0,-46.16011 z"
         style="fill:#d7d7ff;fill-opacity:1;fill-rule:evenodd;stroke:none"
         id="path3185"
         inkscape:connector-curvature="0" />
      <path
         d="m 35.5,800.19598 58.999998,17.59236 0,68.52121 L 35.5,845.94113 z"
         style="fill:#8686bf;fill-opacity:1;fill-rule:evenodd;stroke:none"
         id="path3187"
         inkscape:connector-curvature="0" />
      <path
         d="m 104,848.38098 31,13.84536 27.07483,-16.78713 -29.42344,-9.674 z"
         style="fill:#afafde;fill-opacity:1;fill-rule:evenodd;stroke:none"
         id="path3157"
         inkscape:connector-curvature="0" />
      <path
         d="m 104,820.87128 0,27.5097 28.65139,-12.61577 0,-23.22604 z"
         style="fill:#353564;fill-opacity:1;fill-rule:evenodd;stroke:none"
         id="path3159"
         inkscape:connector-curvature="0" />
      <path
         d="m 132.65139,812.53917 29.42344,6.50503 0,26.39501 -29.42344,-9.674 z"
         style="fill:#e9e9ff;fill-opacity:1;fill-rule:evenodd;stroke:none"
         id="path3161"
         inkscape:connector-curvature="0" />
      <path
         d="m 104,820.87128 31,9.28494 27.07483,-11.11202 -29.42344,-6.50503 z"
         style="fill:#4d4d9f;fill-opacity:1;fill-rule:evenodd;stroke:none"
         id="path3163"
         inkscape:connector-curvature="0" />
      <path
         d="m 104,820.87128 31,9.28494 0,32.07012 -31,-13.84536 z"
         style="fill:#8686bf;fill-opacity:1;fill-rule:evenodd;stroke:none"
         id="path3167"
         inkscape:connector-curvature="0" />
      <path
         d="M 17,843.96041 67.5,883.90502 92.979113,870.43832 38.646246,837.8421 z"
         style="fill:#afafde;fill-opacity:1;fill-rule:evenodd;stroke:none"
         id="path3137"
         inkscape:connector-curvature="0" />
      <path
         d="m 17,822.26916 0,21.69125 21.646246,-6.11831 0,-19.95866 z"
         style="fill:#353564;fill-opacity:1;fill-rule:evenodd;stroke:none"
         id="path3139"
         inkscape:connector-curvature="0" />
      <path
         d="m 38.646246,817.88344 54.332867,23.68175 0,28.87313 -54.332867,-32.59622 z"
         style="fill:#e9e9ff;fill-opacity:1;fill-rule:evenodd;stroke:none"
         id="path3141"
         inkscape:connector-curvature="0" />
      <path
         d="m 17,822.26916 50.5,28.99052 25.479113,-9.69449 -54.332867,-23.68175 z"
         style="fill:#4d4d9f;fill-opacity:1;fill-rule:evenodd;stroke:none"
         id="path3143"
         inkscape:connector-curvature="0" />
      <path
         d="m 17,822.26916 50.5,28.99052 0,32.64534 L 17,843.96041 z"
         style="fill:#8686bf;fill-opacity:1;fill-rule:evenodd;stroke:none"
         id="path3147"
         inkscape:connector-curvature="0" />
    </g>
    <text
       xml:space="preserve"
       style="font-size:59.89803314px;font-style:normal;font-variant:normal;font-weight:normal;font-stretch:normal;text-align:start;line-height:125%;letter-spacing:0px;word-spacing:0px;writing-mode:lr-tb;text-anchor:start;fill:#000000;fill-opacity:1;stroke:none;font-family:Special Elite;-inkscape-font-specification:Special Elite"
       x="24.184391"
       y="776.09747"
       id="text3215"
       sodipodi:linespacing="125%"><tspan
         sodipodi:role="line"
         id="tspan3217"
         x="24.184391"
         y="776.09747"
         style="font-style:normal;font-variant:normal;font-weight:bold;font-stretch:normal;font-family:Lato;-inkscape-font-specification:Lato Bold">Osom</tspan></text>
    <text
       sodipodi:linespacing="125%"
       id="text3252"
       y="723.34637"
       x="125.72658"
       style="font-size:48.88961029px;font-style:normal;font-variant:normal;font-weight:normal;font-stretch:normal;text-align:start;line-height:125%;letter-spacing:0px;word-spacing:0px;writing-mode:lr-tb;text-anchor:start;fill:#000000;fill-opacity:1;stroke:none;font-family:Special Elite;-inkscape-font-specification:Special Elite"
       xml:space="preserve"><tspan
         style="font-style:normal;font-variant:normal;font-weight:bold;font-stretch:normal;font-family:Lato;-inkscape-font-specification:Lato Bold"
         y="723.34637"
         x="125.72658"
         id="tspan3254"
         sodipodi:role="line">talk</tspan></text>
    <path
       style="font-size:medium;font-style:normal;font-variant:normal;font-weight:normal;font-stretch:normal;text-indent:0;text-align:start;text-decoration:none;line-height:normal;letter-spacing:normal;word-spacing:normal;text-transform:none;direction:ltr;block-progression:tb;writing-mode:lr-tb;text-anchor:start;baseline-shift:baseline;color:#000000;fill:#000000;fill-opacity:1;stroke:none;stroke-width:2.4000001;marker:none;visibility:visible;display:inline;overflow:visible;enable-background:accumulate;font-family:Sans;-inkscape-font-specification:Sans"
       d="m 135.74214,681.86171 c -9.65206,0 -17.4375,7.81669 -17.4375,17.46875 l 0,12.125 c 0,8.32984 5.8222,15.21826 13.625,16.96875 -2.41788,3.9197 -6.41538,9.31599 -8.41966,12.11771 4.8771,-2.23692 19.89372,-8.04 27.82591,-11.64896 l 49.5625,0 c 9.65206,0 17.4375,-7.78544 17.4375,-17.4375 l 0,-12.125 c 0,-9.65206 -7.78544,-17.46875 -17.4375,-17.46875 z m 0,2.40625 65.15625,0 c 8.36608,0 15.0625,6.69642 15.0625,15.0625 l 0,12.125 c 0,8.36608 -6.69642,15.03125 -15.0625,15.03125 l -49.84375,0 c -0.17307,0.005 -0.34496,0.0479 -0.5,0.125 l -22.125,10.0625 6.5625,-8.3125 c 0.52901,-0.66909 0.0355,-1.84587 -0.8125,-1.9375 -7.6049,-0.78221 -13.5,-7.13625 -13.5,-14.96875 l 0,-12.125 c 0,-8.36608 6.69642,-15.0625 15.0625,-15.0625 z"
       id="rect3260"
       inkscape:connector-curvature="0"
       sodipodi:nodetypes="ssscccsssssssssscccccsss" />
    <path
       style="fill:#000000;stroke:none"
       d="m 121.22561,809.14667 c -4.99257,0 -9,4.00743 -9,9 l 0,32.5 c 0,4.99257 4.00743,9 9,9 l 3.5625,0 c -2.13362,6.02938 -4.13184,7.31298 -8.28125,10.28125 7.76614,-1.12041 13.98314,-4.92913 16.6875,-10.28125 l 71.03125,0 c 4.99257,0 9,-4.00743 9,-9 l 0,-32.5 c 0,-4.99257 -4.00743,-9 -9,-9 z"
       id="rect4047"
       inkscape:connector-curvature="0"
       sodipodi:nodetypes="sssscccsssss" />
    <text
       sodipodi:linespacing="125%"
       id="text4037"
       y="903.29089"
       x="15.909902"
       style="font-size:59.89803314px;font-style:normal;font-variant:normal;font-weight:normal;font-stretch:normal;text-align:start;line-height:125%;letter-spacing:0px;word-spacing:0px;writing-mode:lr-tb;text-anchor:start;fill:#000000;fill-opacity:1;stroke:none;font-family:Special Elite;-inkscape-font-specification:Special Elite"
       xml:space="preserve"><tspan
         style="font-style:normal;font-variant:normal;font-weight:bold;font-stretch:normal;font-family:Lato;-inkscape-font-specification:Lato Bold"
         y="903.29089"
         x="15.909902"
         id="tspan4039"
         sodipodi:role="line">Osom</tspan></text>
    <text
       xml:space="preserve"
       style="font-size:48.88961029px;font-style:normal;font-variant:normal;font-weight:normal;font-stretch:normal;text-align:start;line-height:125%;letter-spacing:0px;word-spacing:0px;writing-mode:lr-tb;text-anchor:start;fill:#ffffff;fill-opacity:1;stroke:none;font-family:Special Elite;-inkscape-font-specification:Special Elite"
       x="120.13933"
       y="852.36359"
       id="text4041"
       sodipodi:linespacing="125%"><tspan
         sodipodi:role="line"
         id="tspan4043"
         x="120.13933"
         y="852.36359"
         style="font-style:normal;font-variant:normal;font-weight:bold;font-stretch:normal;fill:#ffffff;font-family:Lato;-inkscape-font-specification:Lato Bold">talk</tspan></text>
    <path
       sodipodi:nodetypes="sssscccsssss"
       inkscape:connector-curvature="0"
       id="path4052"
       d="m 183.18549,944.42157 c -6.41429,0 -11.56291,4.69972 -11.56291,10.55476 l 0,38.11431 c 0,5.8551 5.14862,10.55476 11.56291,10.55476 l 4.57698,0 c -2.7412,7.071 -5.30845,8.5763 -10.63948,12.0574 9.97768,-1.3139 17.96508,-5.7806 21.43955,-12.0574 l 91.25865,0 c 6.41429,0 11.56291,-4.69966 11.56291,-10.55476 l 0,-38.11431 c 0,-5.85504 -5.14862,-10.55476 -11.56291,-10.55476 z"
       style="fill:#000000;stroke:none" />
    <text
       xml:space="preserve"
       style="font-size:59.89803314px;font-style:normal;font-variant:normal;font-weight:normal;font-stretch:normal;text-align:start;line-height:125%;letter-spacing:0px;word-spacing:0px;writing-mode:lr-tb;text-anchor:start;fill:#000000;fill-opacity:1;stroke:none;font-family:Special Elite;-inkscape-font-specification:Special Elite"
       x="5.7885675"
       y="995.92181"
       id="text4054"
       sodipodi:linespacing="125%"><tspan
         sodipodi:role="line"
         id="tspan4056"
         x="5.7885675"
         y="995.92181"
         style="font-style:normal;font-variant:normal;font-weight:bold;font-stretch:normal;font-family:Raleway;-inkscape-font-specification:Raleway Bold">Osom</tspan></text>
    <text
       sodipodi:linespacing="125%"
       id="text4062"
       y="995.92181"
       x="175.78857"
       style="font-size:59.89803314px;font-style:normal;font-variant:normal;font-weight:normal;font-stretch:normal;text-align:start;line-height:125%;letter-spacing:0px;word-spacing:0px;writing-mode:lr-tb;text-anchor:start;fill:#000000;fill-opacity:1;stroke:none;font-family:Special Elite;-inkscape-font-specification:Special Elite"
       xml:space="preserve"><tspan
         style="font-style:normal;font-variant:normal;font-weight:bold;font-stretch:normal;fill:#ffffff;font-family:Raleway;-inkscape-font-specification:Raleway Bold"
         y="995.92181"
         x="175.78857"
         id="tspan4064"
         sodipodi:role="line">Talk</tspan></text>
    <text
       sodipodi:linespacing="125%"
       id="text4068"
       y="715.01135"
       x="462.71811"
       style="font-size:59.89803314px;font-style:normal;font-variant:normal;font-weight:normal;font-stretch:normal;text-align:start;line-height:125%;letter-spacing:0px;word-spacing:0px;writing-mode:lr-tb;text-anchor:start;fill:#000000;fill-opacity:1;stroke:none;font-family:Special Elite;-inkscape-font-specification:Special Elite"
       xml:space="preserve"><tspan
         style="font-style:normal;font-variant:normal;font-weight:bold;font-stretch:normal;font-family:Lato;-inkscape-font-specification:Lato Bold"
         y="715.01135"
         x="462.71811"
         id="tspan4070"
         sodipodi:role="line">som</tspan></text>
    <text
       xml:space="preserve"
       style="font-size:59.89803314px;font-style:normal;font-variant:normal;font-weight:normal;font-stretch:normal;text-align:start;line-height:125%;letter-spacing:0px;word-spacing:0px;writing-mode:lr-tb;text-anchor:start;fill:#000000;fill-opacity:1;stroke:none;font-family:Special Elite;-inkscape-font-specification:Special Elite"
       x="460.77338"
       y="763.33722"
       id="text4072"
       sodipodi:linespacing="125%"><tspan
         sodipodi:role="line"
         id="tspan4074"
         x="460.77338"
         y="763.33722"
         style="font-style:normal;font-variant:normal;font-weight:bold;font-stretch:normal;fill:#000000;font-family:Lato;-inkscape-font-specification:Lato Bold">alk</tspan></text>
    <path
       style="fill:#000000;fill-opacity:1;stroke:none"
       d="m 438.69398,671.22626 c -3.27445,4e-5 -6.25339,0.56945 -8.96875,1.6875 -2.69542,1.09817 -5.00081,2.61715 -6.9375,4.59375 -1.91674,1.97667 -3.41056,4.31591 -4.46875,7.03125 -0.26455,0.67386 -0.48909,1.38994 -0.6875,2.09375 0.44707,-0.0132 0.89349,-0.0312 1.34375,-0.0312 2.35846,0 4.64599,0.18084 6.90625,0.53125 0.0162,-0.0493 0.0146,-0.10732 0.0312,-0.15625 0.6389,-1.89674 1.54074,-3.49471 2.71875,-4.8125 1.19795,-1.31772 2.64662,-2.3324 4.34375,-3.03125 1.69709,-0.69877 3.60233,-1.06246 5.71875,-1.0625 2.11637,4e-5 4.04158,0.36373 5.71875,1.0625 1.69708,0.69885 3.13447,1.71353 4.3125,3.03125 1.17796,1.31779 2.06852,2.91576 2.6875,4.8125 0.63888,1.87683 0.93746,3.99907 0.9375,6.375 -4e-5,2.37597 -0.29862,4.5095 -0.9375,6.40625 -0.0591,0.17925 -0.12329,0.3571 -0.1875,0.53125 1.96361,2.02837 3.72531,4.22471 5.28125,6.59375 1.01901,-1.42248 1.85884,-2.97481 2.53125,-4.6875 1.05815,-2.71536 1.5937,-5.66914 1.59375,-8.84375 -5e-5,-3.17457 -0.5356,-6.11706 -1.59375,-8.8125 -1.05824,-2.71534 -2.55205,-5.0433 -4.46875,-7 -1.91678,-1.9766 -4.21087,-3.50686 -6.90625,-4.625 -2.69544,-1.11805 -5.69435,-1.68746 -8.96875,-1.6875 z m 17.8125,35.65625 c -0.5847,0.81621 -1.23869,1.59184 -1.9375,2.3125 -1.91678,1.97664 -4.21087,3.53816 -6.90625,4.65625 -2.69544,1.09813 -5.69435,1.625 -8.96875,1.625 -3.27445,0 -6.25339,-0.52687 -8.96875,-1.625 -2.69542,-1.11809 -5.00081,-2.67961 -6.9375,-4.65625 -1.91674,-1.97663 -3.41056,-4.30458 -4.46875,-7 -1.0582,-2.71536 -1.59375,-5.66914 -1.59375,-8.84375 0,-2.38093 0.31101,-4.60733 0.90625,-6.71875 -24.17563,0.71178 -43.5625,20.52697 -43.5625,44.875 0,24.79829 20.10796,44.90625 44.90625,44.90625 24.79829,0 44.875,-20.10796 44.875,-44.90625 0,-9.0894 -2.70092,-17.55591 -7.34375,-24.625 z m -5.28125,-6.59375 c -6.64246,-6.86156 -15.46844,-11.62527 -25.34375,-13.15625 -0.60604,1.84057 -0.90626,3.90476 -0.90625,6.21875 -1e-5,2.37597 0.29858,4.5095 0.9375,6.40625 0.6389,1.87682 1.54074,3.49476 2.71875,4.8125 1.19795,1.2978 2.64662,2.26995 4.34375,2.96875 1.69709,0.69882 3.60233,1.06251 5.71875,1.0625 2.11637,10e-6 4.04158,-0.36368 5.71875,-1.0625 1.69708,-0.6988 3.13447,-1.67095 4.3125,-2.96875 1.06546,-1.19189 1.89185,-2.63197 2.5,-4.28125 z"
       id="path4076"
       inkscape:connector-curvature="0" />
    <text
       sodipodi:linespacing="125%"
       id="text4078"
       y="763.33722"
       x="432.77338"
       style="font-size:59.89803314px;font-style:normal;font-variant:normal;font-weight:normal;font-stretch:normal;text-align:start;line-height:125%;letter-spacing:0px;word-spacing:0px;writing-mode:lr-tb;text-anchor:start;fill:#000000;fill-opacity:1;stroke:none;font-family:Special Elite;-inkscape-font-specification:Special Elite"
       xml:space="preserve"><tspan
         style="font-style:normal;font-variant:normal;font-weight:bold;font-stretch:normal;fill:#ffffff;font-family:Lato;-inkscape-font-specification:Lato Bold"
         y="763.33722"
         x="432.77338"
         id="tspan4080"
         sodipodi:role="line">T</tspan></text>
    <text
       sodipodi:linespacing="125%"
       id="text4094"
       y="918.70026"
       x="315.79636"
       style="font-size:59.89803314px;font-style:normal;font-variant:normal;font-weight:normal;font-stretch:normal;text-align:start;line-height:125%;letter-spacing:0px;word-spacing:0px;writing-mode:lr-tb;text-anchor:start;fill:#000000;fill-opacity:1;stroke:none;font-family:Special Elite;-inkscape-font-specification:Special Elite"
       xml:space="preserve"><tspan
         style="font-style:normal;font-variant:normal;font-weight:bold;font-stretch:normal;font-family:Lato;-inkscape-font-specification:Lato Bold"
         y="918.70026"
         x="315.79636"
         id="tspan4096"
         sodipodi:role="line">Osom</tspan></text>
    <path
       style="fill:#000000;stroke:none"
       d="m 485.15388,868.52092 100.95907,0 c 3.69997,0 6.67864,2.97867 6.67864,6.67864 l 0,42.9763 c 0,3.69997 -2.97867,6.67864 -6.67864,6.67864 l -100.95907,0 -10.67864,-0.28089 0,-55.97067 z"
       id="rect4114"
       inkscape:connector-curvature="0"
       sodipodi:nodetypes="csssscccc" />
    <text
       xml:space="preserve"
       style="font-size:59.89803314px;font-style:normal;font-variant:normal;font-weight:normal;font-stretch:normal;text-align:start;line-height:125%;letter-spacing:0px;word-spacing:0px;writing-mode:lr-tb;text-anchor:start;fill:#ffffff;fill-opacity:1;stroke:none;font-family:Special Elite;-inkscape-font-specification:Special Elite"
       x="477.44278"
       y="918.70026"
       id="text4098"
       sodipodi:linespacing="125%"><tspan
         sodipodi:role="line"
         id="tspan4100"
         x="477.44278"
         y="918.70026"
         style="font-style:normal;font-variant:normal;font-weight:bold;font-stretch:normal;fill:#ffffff;font-family:Lato;-inkscape-font-specification:Lato Bold">Talk</tspan></text>
    <rect
       style="fill:none;stroke:#000000;stroke-width:2.97536325;stroke-miterlimit:4;stroke-dasharray:none"
       id="rect4102"
       width="279.66458"
       height="56.085823"
       x="313.00314"
       y="868.64484"
       ry="6.6492696" />
    <text
       xml:space="preserve"
       style="font-size:59.89803314px;font-style:normal;font-variant:normal;font-weight:normal;font-stretch:normal;text-align:start;line-height:125%;letter-spacing:0px;word-spacing:0px;writing-mode:lr-tb;text-anchor:start;fill:#000000;fill-opacity:1;stroke:none;font-family:Special Elite;-inkscape-font-specification:Special Elite"
       x="317.02679"
       y="996.66467"
       id="text4117"
       sodipodi:linespacing="125%"><tspan
         sodipodi:role="line"
         id="tspan4119"
         x="317.02679"
         y="996.66467"
         style="font-style:normal;font-variant:normal;font-weight:bold;font-stretch:normal;font-family:Lato;-inkscape-font-specification:Lato Bold">Osom</tspan></text>
    <path
       sodipodi:nodetypes="csssscccc"
       inkscape:connector-curvature="0"
       id="path4121"
       d="m 486.38433,946.48538 100.95907,0 c 3.69997,0 6.67864,2.97867 6.67864,6.67864 l 0,42.9763 c 0,3.69997 -2.97867,6.67868 -6.67864,6.67868 l -100.95907,0 -10.67864,-0.2809 0,-55.9707 z"
       style="fill:#000000;stroke:none" />
    <text
       sodipodi:linespacing="125%"
       id="text4123"
       y="996.66467"
       x="478.67322"
       style="font-size:59.89803314px;font-style:normal;font-variant:normal;font-weight:normal;font-stretch:normal;text-align:start;line-height:125%;letter-spacing:0px;word-spacing:0px;writing-mode:lr-tb;text-anchor:start;fill:#ffffff;fill-opacity:1;stroke:none;font-family:Special Elite;-inkscape-font-specification:Special Elite"
       xml:space="preserve"><tspan
         style="font-style:normal;font-variant:normal;font-weight:bold;font-stretch:normal;fill:#ffffff;font-family:Lato;-inkscape-font-specification:Lato Bold"
         y="996.66467"
         x="478.67322"
         id="tspan4125"
         sodipodi:role="line">Talk</tspan></text>
    <rect
       ry="6.6492696"
       y="946.60925"
       x="314.23358"
       height="56.085823"
       width="279.66458"
       id="rect4127"
       style="fill:none;stroke:#000000;stroke-width:2.97536325;stroke-miterlimit:4;stroke-dasharray:none" />
    <text
       sodipodi:linespacing="125%"
       id="text4129"
       y="836.85852"
       x="317.73389"
       style="font-size:59.89803314px;font-style:normal;font-variant:normal;font-weight:normal;font-stretch:normal;text-align:start;line-height:125%;letter-spacing:0px;word-spacing:0px;writing-mode:lr-tb;text-anchor:start;fill:#000000;fill-opacity:1;stroke:none;font-family:Special Elite;-inkscape-font-specification:Special Elite"
       xml:space="preserve"><tspan
         style="font-style:normal;font-variant:normal;font-weight:bold;font-stretch:normal;font-family:Lato;-inkscape-font-specification:Lato Bold"
         y="836.85852"
         x="317.73389"
         id="tspan4131"
         sodipodi:role="line">O</tspan></text>
    <path
       style="fill:#000000;stroke:none"
       d="m 371.86619,786.67925 41.53022,0 c 1.52202,0 4.79205,2.97874 4.8193,6.67864 l 0.31671,42.9763 c 0.0272,3.6999 -3.61399,6.67868 -5.13601,6.67868 l -41.53022,0 -4.39274,-0.2809 0,-55.9707 z"
       id="path4133"
       inkscape:connector-curvature="0"
       sodipodi:nodetypes="csssscccc" />
    <text
       xml:space="preserve"
       style="font-size:59.89803314px;font-style:normal;font-variant:normal;font-weight:normal;font-stretch:normal;text-align:start;line-height:125%;letter-spacing:0px;word-spacing:0px;writing-mode:lr-tb;text-anchor:start;fill:#ffffff;fill-opacity:1;stroke:none;font-family:Special Elite;-inkscape-font-specification:Special Elite"
       x="375.7338"
       y="836.85852"
       id="text4135"
       sodipodi:linespacing="125%"><tspan
         sodipodi:role="line"
         id="tspan4137"
         x="375.7338"
         y="836.85852"
         style="font-style:normal;font-variant:normal;font-weight:bold;font-stretch:normal;fill:#ffffff;font-family:Lato;-inkscape-font-specification:Lato Bold">T</tspan></text>
    <rect
       style="fill:none;stroke:#000000;stroke-width:1.83412504;stroke-miterlimit:4;stroke-dasharray:none"
       id="rect4139"
       width="104.15187"
       height="57.227058"
       x="314.37006"
       y="786.23242"
       ry="6.7845697" />
    <g
       id="g3885">
      <path
         inkscape:export-ydpi="157.10283"
         inkscape:export-xdpi="157.10283"
         inkscape:export-filename="/home/levhita/Escritorio/text3052.png"
         sodipodi:nodetypes="ssssccsssss"
         inkscape:connector-curvature="0"
         id="path3046"
         d="m 295.69697,502.75787 c -8.47653,0 -8.57336,4.69972 -8.57336,10.55476 l 0,38.11431 c 0,5.8551 0.0968,10.55476 8.57336,10.55476 l 127.58979,0 16.27238,0 10.29515,0 c 8.47653,0 8.75014,-4.69966 8.75014,-10.55476 l 0,-38.11431 c 0,-5.85504 -0.27361,-10.55476 -8.75014,-10.55476 z"
         style="fill:#000000;stroke:none" />
      <text
         inkscape:export-ydpi="157.10283"
         inkscape:export-xdpi="157.10283"
         inkscape:export-filename="/home/levhita/Escritorio/text3052.png"
         xml:space="preserve"
         style="font-size:59.89803314px;font-style:normal;font-variant:normal;font-weight:normal;font-stretch:normal;text-align:start;line-height:125%;letter-spacing:0px;word-spacing:0px;writing-mode:lr-tb;text-anchor:start;fill:#ffffff;fill-opacity:1;stroke:none;font-family:Special Elite;-inkscape-font-specification:Special Elite"
         x="290.36478"
         y="553.48383"
         id="text3048"
         sodipodi:linespacing="125%"><tspan
           sodipodi:role="line"
           id="tspan3050"
           x="290.36478"
           y="553.48383"
           style="font-style:normal;font-variant:normal;font-weight:bold;font-stretch:normal;fill:#ffffff;font-family:Raleway;-inkscape-font-specification:Raleway Bold">Osom</tspan></text>
      <g
         transform="translate(-1.4178932,0)"
         id="g3880">
        <path
           style="fill:#000000;fill-opacity:1;stroke:none"
           d="m 418.80269,561.8622 c 4.64478,9.02139 -17.05766,8.33839 -15.22621,22.95579 10.43684,-13.85595 27.80147,-3.30008 33.218,-22.95579 z"
           id="rect3066"
           inkscape:connector-curvature="0"
           sodipodi:nodetypes="cccc"
           inkscape:transform-center-x="-31.61523"
           inkscape:transform-center-y="-23.946796" />
        <text
           xml:space="preserve"
           style="font-size:66.19102478px;font-style:normal;font-variant:normal;font-weight:normal;font-stretch:normal;text-align:start;line-height:125%;letter-spacing:0px;word-spacing:0px;writing-mode:lr-tb;text-anchor:start;fill:#000000;fill-opacity:1;stroke:none;font-family:Special Elite;-inkscape-font-specification:Special Elite"
           x="310.91724"
           y="618.05627"
           id="text3052"
           sodipodi:linespacing="125%"
           inkscape:export-xdpi="157.10283"
           inkscape:export-ydpi="157.10283"><tspan
             sodipodi:role="line"
             id="tspan3054"
             x="310.91724"
             y="618.05627"
             style="font-style:normal;font-variant:normal;font-weight:bold;font-stretch:normal;fill:#000000;font-family:Raleway;-inkscape-font-specification:Raleway Bold"
             dx="0 -16.800035 -5.4697757 -3.1255865">Talk</tspan></text>
      </g>
    </g>
  </g>
</svg>
