<?xml version="1.0" encoding="UTF-8" standalone="no"?>
<!-- Created with Inkscape (http://www.inkscape.org/) -->

<svg
   xmlns:dc="http://purl.org/dc/elements/1.1/"
   xmlns:cc="http://creativecommons.org/ns#"
   xmlns:rdf="http://www.w3.org/1999/02/22-rdf-syntax-ns#"
   xmlns:svg="http://www.w3.org/2000/svg"
   xmlns="http://www.w3.org/2000/svg"
   xmlns:xlink="http://www.w3.org/1999/xlink"
   xmlns:sodipodi="http://sodipodi.sourceforge.net/DTD/sodipodi-0.dtd"
   xmlns:inkscape="http://www.inkscape.org/namespaces/inkscape"
   width="902.01587"
   height="848.14746"
   id="svg3912"
   version="1.1"
   inkscape:version="0.48.0 r9654"
   sodipodi:docname="osomtalk_logo_colors.svg"
   inkscape:export-filename="/home/levhita/Escritorio/osomtalk_logos.png"
   inkscape:export-xdpi="90"
   inkscape:export-ydpi="90">
  <defs
     id="defs3914">
    <linearGradient
       inkscape:collect="always"
       id="linearGradient4529">
      <stop
         style="stop-color:#2e3436;stop-opacity:1"
         offset="0"
         id="stop4531" />
      <stop
         style="stop-color:#000000;stop-opacity:1"
         offset="1"
         id="stop4533" />
    </linearGradient>
    <linearGradient
       id="linearGradient4013">
      <stop
         style="stop-color:#ff3c89;stop-opacity:1"
         offset="0"
         id="stop4015" />
      <stop
         style="stop-color:#870036;stop-opacity:1"
         offset="1"
         id="stop4017" />
    </linearGradient>
    <linearGradient
       inkscape:collect="always"
       xlink:href="#linearGradient4529"
       id="linearGradient4535"
       x1="191.03546"
       y1="303.00189"
       x2="191.03546"
       y2="407.71631"
       gradientUnits="userSpaceOnUse" />
    <linearGradient
       inkscape:collect="always"
       xlink:href="#linearGradient4013"
       id="linearGradient4563"
       gradientUnits="userSpaceOnUse"
       x1="240.50156"
       y1="69.771088"
       x2="240.50156"
       y2="201.70926" />
    <linearGradient
       inkscape:collect="always"
       xlink:href="#linearGradient4013"
       id="linearGradient4570"
       gradientUnits="userSpaceOnUse"
       gradientTransform="translate(0,80)"
       x1="240.50156"
       y1="69.771088"
       x2="240.50156"
       y2="201.70926" />
    <filter
       inkscape:collect="always"
       id="filter4602"
       color-interpolation-filters="sRGB">
      <feGaussianBlur
         inkscape:collect="always"
         stdDeviation="1.5777513"
         id="feGaussianBlur4604" />
    </filter>
    <linearGradient
       inkscape:collect="always"
       xlink:href="#linearGradient4013"
       id="linearGradient4681"
       gradientUnits="userSpaceOnUse"
       gradientTransform="translate(0,80)"
       x1="240.50156"
       y1="69.771088"
       x2="240.50156"
       y2="201.70926" />
    <linearGradient
       inkscape:collect="always"
       xlink:href="#linearGradient4529"
       id="linearGradient4715"
       gradientUnits="userSpaceOnUse"
       x1="191.03546"
       y1="303.00189"
       x2="191.03546"
       y2="407.71631" />
  </defs>
  <sodipodi:namedview
     id="base"
     pagecolor="#ffffff"
     bordercolor="#666666"
     borderopacity="1.0"
     inkscape:pageopacity="1"
     inkscape:pageshadow="2"
     inkscape:zoom="0.43785022"
     inkscape:cx="237.85955"
     inkscape:cy="457.59905"
     inkscape:current-layer="layer1"
     inkscape:document-units="px"
     showgrid="false"
     inkscape:window-width="1366"
     inkscape:window-height="715"
     inkscape:window-x="0"
     inkscape:window-y="24"
     inkscape:window-maximized="1"
     showguides="true"
     inkscape:guide-bbox="true"
     fit-margin-top="10"
     fit-margin-left="10"
     fit-margin-right="10"
     fit-margin-bottom="10">
    <sodipodi:guide
       orientation="0,1"
       position="715.83667,769.86097"
       id="guide4709" />
    <sodipodi:guide
       orientation="1,0"
       position="20.450059,453.43854"
       id="guide4711" />
    <sodipodi:guide
       orientation="0,1"
       position="866.57315,338.20652"
       id="guide4713" />
  </sodipodi:namedview>
  <metadata
     id="metadata3917">
    <rdf:RDF>
      <cc:Work
         rdf:about="">
        <dc:format>image/svg+xml</dc:format>
        <dc:type
           rdf:resource="http://purl.org/dc/dcmitype/StillImage" />
        <dc:title></dc:title>
      </cc:Work>
    </rdf:RDF>
  </metadata>
  <g
     id="layer1"
     inkscape:label="Layer 1"
     inkscape:groupmode="layer"
     transform="translate(492.01584,358.8205)">
    <g
       style="font-size:131.46563721px;font-style:normal;font-variant:normal;font-weight:normal;font-stretch:normal;text-align:start;line-height:125%;letter-spacing:0px;word-spacing:0px;writing-mode:lr-tb;text-anchor:start;fill:#ffffff;fill-opacity:1;stroke:none;font-family:Special Elite;-inkscape-font-specification:Special Elite"
       id="text3048" />
    <text
       xml:space="preserve"
       style="font-size:146.86920166px;font-style:normal;font-variant:normal;font-weight:normal;font-stretch:normal;text-align:start;line-height:125%;letter-spacing:0px;word-spacing:0px;writing-mode:lr-tb;text-anchor:start;fill:url(#linearGradient4715);fill-opacity:1;stroke:none;font-family:Special Elite;-inkscape-font-specification:Special Elite"
       x="59.402084"
       y="407.18167"
       id="text3052"
       sodipodi:linespacing="125%"
       inkscape:export-xdpi="157.10283"
       inkscape:export-ydpi="157.10283"><tspan
         sodipodi:role="line"
         id="tspan3054"
         x="59.402084"
         y="407.18167"
         style="font-style:normal;font-variant:normal;font-weight:bold;font-stretch:normal;fill:url(#linearGradient4715);fill-opacity:1;font-family:Raleway;-inkscape-font-specification:Raleway Bold"
         dx="0 -37.277077 -12.136715 -6.9352665">Talk</tspan></text>
    <g
       id="g4606">
      <path
         style="fill:#ffffff;fill-opacity:1;stroke:none"
         d="m 28.78125,161.34375 c -18.808308,0 -13.03125,0.44593 -13.03125,13.4375 l 0,84.5625 c 0,12.9917 -5.777126,17.40625 13.03125,17.40625 l 270.96875,0 38.28125,0 9.96875,0 22.84375,0 c 18.80831,0 13.40625,-4.41455 13.40625,-17.40625 l 0,-84.5625 c 0,-12.99157 5.40206,-13.4375 -13.40625,-13.4375 z"
         id="path4580"
         inkscape:connector-curvature="0"
         sodipodi:nodetypes="sssscccsssss" />
      <path
         sodipodi:nodetypes="sssscccsssssccccccccsccssccccccccccccscccccccccccccccccccccccccscssccssccccccssccccccccccssscssscccccccccccccccccccccscccccccccccccccccccccccccccc"
         inkscape:connector-curvature="0"
         id="path4560"
         d="m 26.78125,163.34375 c -18.808309,0 -13.03125,0.44593 -13.03125,13.4375 l 0,84.5625 c 0,12.9917 -5.777126,17.40625 13.03125,17.40625 l 270.96875,0 38.28125,0 9.96875,0 22.84375,0 c 18.80831,0 13.40625,-4.41455 13.40625,-17.40625 l 0,-84.5625 c 0,-12.99157 5.40206,-13.4375 -13.40625,-13.4375 z m 37.75,8.0625 c 6.573227,9e-5 12.597275,1.38299 18.03125,4.1875 5.43384,2.71704 10.0811,6.3115 13.9375,10.78125 3.85624,4.46991 6.83396,9.55322 8.9375,15.25 2.10336,5.6969 3.15615,11.50292 3.15625,17.375 -1e-4,6.22275 -1.15885,12.17819 -3.4375,17.875 -2.19118,5.60922 -5.24362,10.58658 -9.1875,14.96875 -3.94405,4.29455 -8.62866,7.77695 -14.0625,10.40625 -5.433973,2.54167 -11.35206,3.8125 -17.75,3.8125 -6.573323,0 -12.597373,-1.30819 -18.03125,-3.9375 -5.433938,-2.71695 -10.118551,-6.27405 -14.0625,-10.65625 -3.856338,-4.46981 -6.83406,-9.55313 -8.9375,-15.25 -2.103456,-5.69681 -3.156254,-11.54018 -3.15625,-17.5 -4e-6,-6.22265 1.090151,-12.17809 3.28125,-17.875 2.278728,-5.69677 5.399767,-10.74273 9.34375,-15.125 4.031591,-4.3821 8.753562,-7.83324 14.1875,-10.375 5.433877,-2.62922 11.351963,-3.93741 17.75,-3.9375 z m -0.25,16.15625 c -4.206945,8e-5 -7.944722,0.94081 -11.1875,2.78125 -3.15521,1.75295 -5.846293,4.11393 -8.125,7.09375 -2.191121,2.8923 -3.860656,6.20013 -5,9.96875 -1.139392,3.6811 -1.718773,7.45622 -1.71875,11.3125 -2.3e-5,4.03165 0.579358,7.95011 1.71875,11.71875 1.226987,3.76871 2.933879,7.07653 5.125,9.96875 2.278706,2.89227 5.038397,5.21589 8.28125,6.96875 3.242778,1.75289 6.911948,2.62502 11.03125,2.625 4.206847,2e-5 7.907268,-0.87211 11.0625,-2.625 3.24276,-1.8405 5.93384,-4.23884 8.125,-7.21875 2.19102,-2.97986 3.86056,-6.31893 5,-10 1.1393,-3.76864 1.71868,-7.58113 1.71875,-11.4375 -7e-5,-4.03156 -0.61681,-7.91877 -1.84375,-11.6875 -1.22708,-3.76862 -2.97133,-7.10769 -5.25,-10 -2.19116,-2.89217 -4.91349,-5.17845 -8.15625,-6.84375 -3.155231,-1.7528 -6.74969,-2.62492 -10.78125,-2.625 z m 81.28125,7.625 c 4.90801,7e-5 9.7733,0.79748 14.59375,2.375 4.908,1.49001 9.48054,3.55825 13.6875,6.1875 l -7.21875,10.90625 c -3.85638,-2.45397 -7.51944,-4.19822 -10.9375,-5.25 -3.41814,-1.13931 -6.83193,-1.7187 -10.25,-1.71875 -3.1552,5e-5 -5.80894,0.6168 -8,1.84375 -2.10348,1.22707 -3.15627,3.18934 -3.15625,5.90625 -2e-5,2.36643 0.98417,4.07332 3,5.125 2.10343,1.05177 5.80384,2.24789 11.0625,3.5625 4.90801,1.22705 9.0506,2.46052 12.46875,3.6875 3.5057,1.22705 6.37135,2.60995 8.5625,4.1875 2.27868,1.57762 3.91085,3.42782 4.875,5.53125 1.05166,2.01583 1.56244,4.45153 1.5625,7.34375 -6e-5,3.33048 -0.69151,6.37681 -2.09375,9.09375 -1.31471,2.71697 -3.20228,5.04059 -5.65625,6.96875 -2.45408,1.84052 -5.46915,3.26078 -9.0625,4.3125 -3.50579,0.96409 -7.42424,1.46875 -11.71875,1.46875 -2.80463,0 -5.74499,-0.21803 -8.8125,-0.65625 -2.97991,-0.43822 -5.92028,-1.05496 -8.8125,-1.84375 -2.89226,-0.78879 -5.65195,-1.76688 -8.28125,-2.90625 -2.62932,-1.13937 -4.95295,-2.41019 -6.96875,-3.8125 l 7.125,-11.96875 c 8.76435,5.69686 17.19286,8.56251 25.34375,8.5625 3.681,1e-5 6.584,-0.65408 8.6875,-1.96875 2.1034,-1.31464 3.1562,-3.20221 3.15625,-5.65625 -5e-5,-2.45401 -1.27088,-4.26686 -3.8125,-5.40625 -2.45407,-1.22699 -6.6279,-2.53517 -12.5,-3.9375 -4.46986,-1.0517 -8.28234,-2.14185 -11.4375,-3.28125 -3.15519,-1.13934 -5.69685,-2.44752 -7.625,-3.9375 -1.92817,-1.48991 -3.31107,-3.1968 -4.1875,-5.125 -0.87644,-1.92812 -1.31251,-4.2144 -1.3125,-6.84375 -1e-5,-3.5057 0.69144,-6.6641 2.09375,-9.46875 1.40229,-2.80454 3.32721,-5.16552 5.78125,-7.09375 2.54165,-2.01574 5.48202,-3.54196 8.8125,-4.59375 3.41808,-1.05166 7.08725,-1.59368 11.03125,-1.59375 z m 73.21875,0.125 c 5.60916,7e-5 10.58652,0.97816 14.96875,2.90625 4.46978,1.92823 8.2449,4.5446 11.3125,7.875 3.1551,3.24287 5.5847,7.01801 7.25,11.3125 1.66516,4.29459 2.49992,8.86713 2.5,13.6875 -8e-5,4.73279 -0.83484,9.23673 -2.5,13.53125 -1.6653,4.29456 -4.05753,8.10705 -7.125,11.4375 -3.06759,3.24283 -6.81148,5.82184 -11.28125,7.75 -4.46988,1.92816 -9.51584,2.90625 -15.125,2.90625 -5.60923,0 -10.65519,-0.97809 -15.125,-2.90625 -4.46985,-1.92816 -8.28234,-4.50717 -11.4375,-7.75 -3.06754,-3.33045 -5.42853,-7.14294 -7.09375,-11.4375 -1.66524,-4.29452 -2.5,-8.79846 -2.5,-13.53125 0,-4.82037 0.83476,-9.39291 2.5,-13.6875 1.66522,-4.29449 4.02621,-8.06963 7.09375,-11.3125 3.15516,-3.3304 6.96765,-5.94677 11.4375,-7.875 4.46981,-1.92809 9.51577,-2.90618 15.125,-2.90625 z m 89.1875,0 c 5.78443,7e-5 10.21365,1.41421 13.28125,4.21875 3.1551,2.80466 5.22335,6.2558 6.1875,10.375 2.80453,-4.7327 6.33038,-8.32716 10.625,-10.78125 4.29446,-2.5416 9.22835,-3.81243 14.75,-3.8125 4.2068,7e-5 7.65795,0.79748 10.375,2.375 2.71685,1.57765 4.82245,3.6459 6.3125,6.1875 1.48984,2.54173 2.50528,5.44474 3.03125,8.6875 0.6134,3.24287 0.90614,6.51333 0.90625,9.84375 l 0,43 -17.625,0 0,-38.65625 c -10e-5,-5.52151 -0.94693,-9.55203 -2.875,-12.09375 -1.92825,-2.54161 -4.57588,-3.81244 -7.90625,-3.8125 -3.41819,6e-5 -6.6513,1.34559 -9.71875,4.0625 -3.06761,2.62936 -5.24792,6.11175 -6.5625,10.40625 l 0,40.09375 -17.625,0 0,-38.65625 c -5e-5,-5.52151 -0.94689,-9.55203 -2.875,-12.09375 -1.84057,-2.54161 -4.45083,-3.81244 -7.78125,-3.8125 -3.41814,6e-5 -6.68861,1.30824 -9.84375,3.9375 -3.06756,2.62936 -5.27912,6.0805 -6.59375,10.375 l 0,40.25 -17.59375,0 0,-68.90625 15.90625,0 0,12.75 c 2.54164,-4.46977 5.99278,-7.88355 10.375,-10.25 4.4698,-2.45395 9.55311,-3.68743 15.25,-3.6875 z m -89.1875,15 c -2.5417,5e-5 -4.90269,0.51083 -7.09375,1.5625 -2.19113,1.05177 -4.11605,2.50328 -5.78125,4.34375 -1.57761,1.84057 -2.84845,4.05213 -3.8125,6.59375 -0.87646,2.54171 -1.31252,5.3014 -1.3125,8.28125 -2e-5,3.06756 0.43604,5.86461 1.3125,8.40625 0.96405,2.45405 2.23489,4.597 3.8125,6.4375 1.6652,1.84053 3.59012,3.29204 5.78125,4.34375 2.19106,0.9641 4.55205,1.43752 7.09375,1.4375 2.54163,2e-5 4.90261,-0.4734 7.09375,-1.4375 2.19104,-1.05171 4.07861,-2.50322 5.65625,-4.34375 1.66518,-1.8405 2.93601,-4.0208 3.8125,-6.5625 0.96403,-2.54164 1.43745,-5.36993 1.4375,-8.4375 -5e-5,-2.97985 -0.47347,-5.73954 -1.4375,-8.28125 -0.87649,-2.54163 -2.14732,-4.72194 -3.8125,-6.5625 -1.57764,-1.84047 -3.46521,-3.25462 -5.65625,-4.21875 -2.19114,-1.05167 -4.55212,-1.56245 -7.09375,-1.5625 z"
         style="opacity:0.5;fill:#2e3436;fill-opacity:1;stroke:none;filter:url(#filter4602)" />
      <path
         style="fill:url(#linearGradient4570);fill-opacity:1;stroke:none"
         d="M 28.78125,151.34375 C 9.972941,151.34375 9.75,161.78968 9.75,174.78125 l 0,84.5625 c 0,12.9917 0.222874,23.40625 19.03125,23.40625 l 270.96875,0 c 5.66807,17.84021 -38.65468,19.523 -34.75,50.6875 22.74802,-30.20028 60.31631,-10.07191 73.03125,-50.6875 l 9.96875,0 22.84375,0 c 18.80831,0 19.40625,-10.41455 19.40625,-23.40625 l 0,-84.5625 c 0,-12.99157 -0.59794,-23.4375 -19.40625,-23.4375 l -342.0625,0 z m 37.75,18.0625 c 6.57323,9e-5 12.59727,1.38299 18.03125,4.1875 5.43384,2.71704 10.0811,6.3115 13.9375,10.78125 3.85624,4.46991 6.83396,9.55322 8.9375,15.25 2.10336,5.6969 3.15615,11.50292 3.15625,17.375 -1e-4,6.22275 -1.15885,12.17819 -3.4375,17.875 -2.19118,5.60922 -5.24362,10.58658 -9.1875,14.96875 -3.94405,4.29455 -8.62866,7.77695 -14.0625,10.40625 -5.43397,2.54167 -11.35206,3.8125 -17.75,3.8125 -6.573323,0 -12.597373,-1.30819 -18.03125,-3.9375 -5.433938,-2.71695 -10.118551,-6.27405 -14.0625,-10.65625 -3.856338,-4.46981 -6.83406,-9.55313 -8.9375,-15.25 -2.103456,-5.69681 -3.156254,-11.54018 -3.15625,-17.5 -4e-6,-6.22265 1.090151,-12.17809 3.28125,-17.875 2.278728,-5.69677 5.399767,-10.74273 9.34375,-15.125 4.031591,-4.3821 8.753562,-7.83324 14.1875,-10.375 5.433877,-2.62922 11.35196,-3.93741 17.75,-3.9375 z m -0.25,16.15625 c -4.20695,8e-5 -7.944722,0.94081 -11.1875,2.78125 -3.15521,1.75295 -5.846293,4.11393 -8.125,7.09375 -2.191121,2.8923 -3.860656,6.20013 -5,9.96875 -1.139392,3.6811 -1.718773,7.45622 -1.71875,11.3125 -2.3e-5,4.03165 0.579358,7.95011 1.71875,11.71875 1.226987,3.76871 2.933879,7.07653 5.125,9.96875 2.278706,2.89227 5.038397,5.21589 8.28125,6.96875 3.242778,1.75289 6.91195,2.62502 11.03125,2.625 4.20685,2e-5 7.90727,-0.87211 11.0625,-2.625 3.24276,-1.8405 5.93384,-4.23884 8.125,-7.21875 2.19102,-2.97986 3.86056,-6.31893 5,-10 1.1393,-3.76864 1.71868,-7.58113 1.71875,-11.4375 -7e-5,-4.03156 -0.61681,-7.91877 -1.84375,-11.6875 -1.22708,-3.76862 -2.97133,-7.10769 -5.25,-10 -2.19116,-2.89217 -4.91349,-5.17845 -8.15625,-6.84375 -3.15523,-1.7528 -6.74969,-2.62492 -10.78125,-2.625 z m 81.28125,7.625 c 4.90801,7e-5 9.7733,0.79748 14.59375,2.375 4.908,1.49001 9.48054,3.55825 13.6875,6.1875 l -7.21875,10.90625 c -3.85638,-2.45397 -7.51944,-4.19822 -10.9375,-5.25 -3.41814,-1.13931 -6.83193,-1.7187 -10.25,-1.71875 -3.1552,5e-5 -5.80894,0.6168 -8,1.84375 -2.10348,1.22707 -3.15627,3.18934 -3.15625,5.90625 -2e-5,2.36643 0.98417,4.07332 3,5.125 2.10343,1.05177 5.80384,2.24789 11.0625,3.5625 4.90801,1.22705 9.0506,2.46052 12.46875,3.6875 3.5057,1.22705 6.37135,2.60995 8.5625,4.1875 2.27868,1.57762 3.91085,3.42782 4.875,5.53125 1.05166,2.01583 1.56244,4.45153 1.5625,7.34375 -6e-5,3.33048 -0.69151,6.37681 -2.09375,9.09375 -1.31471,2.71697 -3.20228,5.04059 -5.65625,6.96875 -2.45408,1.84052 -5.46915,3.26078 -9.0625,4.3125 -3.50579,0.96409 -7.42424,1.46875 -11.71875,1.46875 -2.80463,0 -5.74499,-0.21803 -8.8125,-0.65625 -2.97991,-0.43822 -5.92028,-1.05496 -8.8125,-1.84375 -2.89226,-0.78879 -5.65195,-1.76688 -8.28125,-2.90625 -2.62932,-1.13937 -4.95295,-2.41019 -6.96875,-3.8125 l 7.125,-11.96875 c 8.76435,5.69686 17.19286,8.56251 25.34375,8.5625 3.681,1e-5 6.584,-0.65408 8.6875,-1.96875 2.1034,-1.31464 3.1562,-3.20221 3.15625,-5.65625 -5e-5,-2.45401 -1.27088,-4.26686 -3.8125,-5.40625 -2.45407,-1.22699 -6.6279,-2.53517 -12.5,-3.9375 -4.46986,-1.0517 -8.28234,-2.14185 -11.4375,-3.28125 -3.15519,-1.13934 -5.69685,-2.44752 -7.625,-3.9375 -1.92817,-1.48991 -3.31107,-3.1968 -4.1875,-5.125 -0.87644,-1.92812 -1.31251,-4.2144 -1.3125,-6.84375 -1e-5,-3.5057 0.69144,-6.6641 2.09375,-9.46875 1.40229,-2.80454 3.32721,-5.16552 5.78125,-7.09375 2.54165,-2.01574 5.48202,-3.54196 8.8125,-4.59375 3.41808,-1.05166 7.08725,-1.59368 11.03125,-1.59375 z m 73.21875,0.125 c 5.60916,7e-5 10.58652,0.97816 14.96875,2.90625 4.46978,1.92823 8.2449,4.5446 11.3125,7.875 3.1551,3.24287 5.5847,7.01801 7.25,11.3125 1.66516,4.29459 2.49992,8.86713 2.5,13.6875 -8e-5,4.73279 -0.83484,9.23673 -2.5,13.53125 -1.6653,4.29456 -4.05753,8.10705 -7.125,11.4375 -3.06759,3.24283 -6.81148,5.82184 -11.28125,7.75 -4.46988,1.92816 -9.51584,2.90625 -15.125,2.90625 -5.60923,0 -10.65519,-0.97809 -15.125,-2.90625 -4.46985,-1.92816 -8.28234,-4.50717 -11.4375,-7.75 -3.06754,-3.33045 -5.42853,-7.14294 -7.09375,-11.4375 -1.66524,-4.29452 -2.5,-8.79846 -2.5,-13.53125 0,-4.82037 0.83476,-9.39291 2.5,-13.6875 1.66522,-4.29449 4.02621,-8.06963 7.09375,-11.3125 3.15516,-3.3304 6.96765,-5.94677 11.4375,-7.875 4.46981,-1.92809 9.51577,-2.90618 15.125,-2.90625 z m 89.1875,0 c 5.78443,7e-5 10.21365,1.41421 13.28125,4.21875 3.1551,2.80466 5.22335,6.2558 6.1875,10.375 2.80453,-4.7327 6.33038,-8.32716 10.625,-10.78125 4.29446,-2.5416 9.22835,-3.81243 14.75,-3.8125 4.2068,7e-5 7.65795,0.79748 10.375,2.375 2.71685,1.57765 4.82245,3.6459 6.3125,6.1875 1.48984,2.54173 2.50528,5.44474 3.03125,8.6875 0.6134,3.24287 0.90614,6.51333 0.90625,9.84375 l 0,43 -17.625,0 0,-38.65625 c -10e-5,-5.52151 -0.94693,-9.55203 -2.875,-12.09375 -1.92825,-2.54161 -4.57588,-3.81244 -7.90625,-3.8125 -3.41819,6e-5 -6.6513,1.34559 -9.71875,4.0625 -3.06761,2.62936 -5.24792,6.11175 -6.5625,10.40625 l 0,40.09375 -17.625,0 0,-38.65625 c -5e-5,-5.52151 -0.94689,-9.55203 -2.875,-12.09375 -1.84057,-2.54161 -4.45083,-3.81244 -7.78125,-3.8125 -3.41814,6e-5 -6.68861,1.30824 -9.84375,3.9375 -3.06756,2.62936 -5.27912,6.0805 -6.59375,10.375 l 0,40.25 -17.59375,0 0,-68.90625 15.90625,0 0,12.75 c 2.54164,-4.46977 5.99278,-7.88355 10.375,-10.25 4.4698,-2.45395 9.55311,-3.68743 15.25,-3.6875 z m -89.1875,15 c -2.5417,5e-5 -4.90269,0.51083 -7.09375,1.5625 -2.19113,1.05177 -4.11605,2.50328 -5.78125,4.34375 -1.57761,1.84057 -2.84845,4.05213 -3.8125,6.59375 -0.87646,2.54171 -1.31252,5.3014 -1.3125,8.28125 -2e-5,3.06756 0.43604,5.86461 1.3125,8.40625 0.96405,2.45405 2.23489,4.597 3.8125,6.4375 1.6652,1.84053 3.59012,3.29204 5.78125,4.34375 2.19106,0.9641 4.55205,1.43752 7.09375,1.4375 2.54163,2e-5 4.90261,-0.4734 7.09375,-1.4375 2.19104,-1.05171 4.07861,-2.50322 5.65625,-4.34375 1.66518,-1.8405 2.93601,-4.0208 3.8125,-6.5625 0.96403,-2.54164 1.43745,-5.36993 1.4375,-8.4375 -5e-5,-2.97985 -0.47347,-5.73954 -1.4375,-8.28125 -0.87649,-2.54163 -2.14732,-4.72194 -3.8125,-6.5625 -1.57764,-1.84047 -3.46521,-3.25462 -5.65625,-4.21875 -2.19114,-1.05167 -4.55212,-1.56245 -7.09375,-1.5625 z"
         id="path4568"
         inkscape:connector-curvature="0" />
    </g>
    <rect
       style="fill:#000000;fill-opacity:1;stroke:#ff0000;stroke-width:0.19128437;stroke-linecap:round;stroke-linejoin:round;stroke-miterlimit:4;stroke-opacity:1;stroke-dasharray:none;stroke-dashoffset:0"
       id="rect4647"
       width="399.80872"
       height="399.80872"
       x="-481.9202"
       y="79.422577"
       ry="4.3822007" />
    <g
       id="g4673"
       transform="translate(-5.2647081,6.6316748)">
      <text
         xml:space="preserve"
         style="font-size:146.86920166px;font-style:normal;font-variant:normal;font-weight:normal;font-stretch:normal;text-align:start;line-height:125%;letter-spacing:0px;word-spacing:0px;writing-mode:lr-tb;text-anchor:start;fill:#ffffff;fill-opacity:1;stroke:none;font-family:Special Elite;-inkscape-font-specification:Special Elite"
         x="-417.03745"
         y="399.87991"
         id="text4649"
         sodipodi:linespacing="125%"
         inkscape:export-xdpi="157.10283"
         inkscape:export-ydpi="157.10283"><tspan
           sodipodi:role="line"
           id="tspan4651"
           x="-417.03745"
           y="399.87991"
           style="font-style:normal;font-variant:normal;font-weight:bold;font-stretch:normal;fill:#ffffff;fill-opacity:1;font-family:Raleway;-inkscape-font-specification:Raleway Bold"
           dx="0 -37.277077 -12.136715 -6.9352665">Talk</tspan></text>
      <g
         transform="translate(-476.43953,-7.3017552)"
         id="g4653">
        <path
           style="fill:#ffffff;fill-opacity:1;stroke:none"
           d="m 28.78125,161.34375 c -18.808308,0 -13.03125,0.44593 -13.03125,13.4375 l 0,84.5625 c 0,12.9917 -5.777126,17.40625 13.03125,17.40625 l 270.96875,0 38.28125,0 9.96875,0 22.84375,0 c 18.80831,0 13.40625,-4.41455 13.40625,-17.40625 l 0,-84.5625 c 0,-12.99157 5.40206,-13.4375 -13.40625,-13.4375 z"
           id="path4655"
           inkscape:connector-curvature="0"
           sodipodi:nodetypes="sssscccsssss" />
        <path
           sodipodi:nodetypes="sssscccsssssccccccccsccssccccccccccccscccccccccccccccccccccccccscssccssccccccssccccccccccssscssscccccccccccccccccccccscccccccccccccccccccccccccccc"
           inkscape:connector-curvature="0"
           id="path4657"
           d="m 26.78125,163.34375 c -18.808309,0 -13.03125,0.44593 -13.03125,13.4375 l 0,84.5625 c 0,12.9917 -5.777126,17.40625 13.03125,17.40625 l 270.96875,0 38.28125,0 9.96875,0 22.84375,0 c 18.80831,0 13.40625,-4.41455 13.40625,-17.40625 l 0,-84.5625 c 0,-12.99157 5.40206,-13.4375 -13.40625,-13.4375 z m 37.75,8.0625 c 6.573227,9e-5 12.597275,1.38299 18.03125,4.1875 5.43384,2.71704 10.0811,6.3115 13.9375,10.78125 3.85624,4.46991 6.83396,9.55322 8.9375,15.25 2.10336,5.6969 3.15615,11.50292 3.15625,17.375 -1e-4,6.22275 -1.15885,12.17819 -3.4375,17.875 -2.19118,5.60922 -5.24362,10.58658 -9.1875,14.96875 -3.94405,4.29455 -8.62866,7.77695 -14.0625,10.40625 -5.433973,2.54167 -11.35206,3.8125 -17.75,3.8125 -6.573323,0 -12.597373,-1.30819 -18.03125,-3.9375 -5.433938,-2.71695 -10.118551,-6.27405 -14.0625,-10.65625 -3.856338,-4.46981 -6.83406,-9.55313 -8.9375,-15.25 -2.103456,-5.69681 -3.156254,-11.54018 -3.15625,-17.5 -4e-6,-6.22265 1.090151,-12.17809 3.28125,-17.875 2.278728,-5.69677 5.399767,-10.74273 9.34375,-15.125 4.031591,-4.3821 8.753562,-7.83324 14.1875,-10.375 5.433877,-2.62922 11.351963,-3.93741 17.75,-3.9375 z m -0.25,16.15625 c -4.206945,8e-5 -7.944722,0.94081 -11.1875,2.78125 -3.15521,1.75295 -5.846293,4.11393 -8.125,7.09375 -2.191121,2.8923 -3.860656,6.20013 -5,9.96875 -1.139392,3.6811 -1.718773,7.45622 -1.71875,11.3125 -2.3e-5,4.03165 0.579358,7.95011 1.71875,11.71875 1.226987,3.76871 2.933879,7.07653 5.125,9.96875 2.278706,2.89227 5.038397,5.21589 8.28125,6.96875 3.242778,1.75289 6.911948,2.62502 11.03125,2.625 4.206847,2e-5 7.907268,-0.87211 11.0625,-2.625 3.24276,-1.8405 5.93384,-4.23884 8.125,-7.21875 2.19102,-2.97986 3.86056,-6.31893 5,-10 1.1393,-3.76864 1.71868,-7.58113 1.71875,-11.4375 -7e-5,-4.03156 -0.61681,-7.91877 -1.84375,-11.6875 -1.22708,-3.76862 -2.97133,-7.10769 -5.25,-10 -2.19116,-2.89217 -4.91349,-5.17845 -8.15625,-6.84375 -3.155231,-1.7528 -6.74969,-2.62492 -10.78125,-2.625 z m 81.28125,7.625 c 4.90801,7e-5 9.7733,0.79748 14.59375,2.375 4.908,1.49001 9.48054,3.55825 13.6875,6.1875 l -7.21875,10.90625 c -3.85638,-2.45397 -7.51944,-4.19822 -10.9375,-5.25 -3.41814,-1.13931 -6.83193,-1.7187 -10.25,-1.71875 -3.1552,5e-5 -5.80894,0.6168 -8,1.84375 -2.10348,1.22707 -3.15627,3.18934 -3.15625,5.90625 -2e-5,2.36643 0.98417,4.07332 3,5.125 2.10343,1.05177 5.80384,2.24789 11.0625,3.5625 4.90801,1.22705 9.0506,2.46052 12.46875,3.6875 3.5057,1.22705 6.37135,2.60995 8.5625,4.1875 2.27868,1.57762 3.91085,3.42782 4.875,5.53125 1.05166,2.01583 1.56244,4.45153 1.5625,7.34375 -6e-5,3.33048 -0.69151,6.37681 -2.09375,9.09375 -1.31471,2.71697 -3.20228,5.04059 -5.65625,6.96875 -2.45408,1.84052 -5.46915,3.26078 -9.0625,4.3125 -3.50579,0.96409 -7.42424,1.46875 -11.71875,1.46875 -2.80463,0 -5.74499,-0.21803 -8.8125,-0.65625 -2.97991,-0.43822 -5.92028,-1.05496 -8.8125,-1.84375 -2.89226,-0.78879 -5.65195,-1.76688 -8.28125,-2.90625 -2.62932,-1.13937 -4.95295,-2.41019 -6.96875,-3.8125 l 7.125,-11.96875 c 8.76435,5.69686 17.19286,8.56251 25.34375,8.5625 3.681,1e-5 6.584,-0.65408 8.6875,-1.96875 2.1034,-1.31464 3.1562,-3.20221 3.15625,-5.65625 -5e-5,-2.45401 -1.27088,-4.26686 -3.8125,-5.40625 -2.45407,-1.22699 -6.6279,-2.53517 -12.5,-3.9375 -4.46986,-1.0517 -8.28234,-2.14185 -11.4375,-3.28125 -3.15519,-1.13934 -5.69685,-2.44752 -7.625,-3.9375 -1.92817,-1.48991 -3.31107,-3.1968 -4.1875,-5.125 -0.87644,-1.92812 -1.31251,-4.2144 -1.3125,-6.84375 -1e-5,-3.5057 0.69144,-6.6641 2.09375,-9.46875 1.40229,-2.80454 3.32721,-5.16552 5.78125,-7.09375 2.54165,-2.01574 5.48202,-3.54196 8.8125,-4.59375 3.41808,-1.05166 7.08725,-1.59368 11.03125,-1.59375 z m 73.21875,0.125 c 5.60916,7e-5 10.58652,0.97816 14.96875,2.90625 4.46978,1.92823 8.2449,4.5446 11.3125,7.875 3.1551,3.24287 5.5847,7.01801 7.25,11.3125 1.66516,4.29459 2.49992,8.86713 2.5,13.6875 -8e-5,4.73279 -0.83484,9.23673 -2.5,13.53125 -1.6653,4.29456 -4.05753,8.10705 -7.125,11.4375 -3.06759,3.24283 -6.81148,5.82184 -11.28125,7.75 -4.46988,1.92816 -9.51584,2.90625 -15.125,2.90625 -5.60923,0 -10.65519,-0.97809 -15.125,-2.90625 -4.46985,-1.92816 -8.28234,-4.50717 -11.4375,-7.75 -3.06754,-3.33045 -5.42853,-7.14294 -7.09375,-11.4375 -1.66524,-4.29452 -2.5,-8.79846 -2.5,-13.53125 0,-4.82037 0.83476,-9.39291 2.5,-13.6875 1.66522,-4.29449 4.02621,-8.06963 7.09375,-11.3125 3.15516,-3.3304 6.96765,-5.94677 11.4375,-7.875 4.46981,-1.92809 9.51577,-2.90618 15.125,-2.90625 z m 89.1875,0 c 5.78443,7e-5 10.21365,1.41421 13.28125,4.21875 3.1551,2.80466 5.22335,6.2558 6.1875,10.375 2.80453,-4.7327 6.33038,-8.32716 10.625,-10.78125 4.29446,-2.5416 9.22835,-3.81243 14.75,-3.8125 4.2068,7e-5 7.65795,0.79748 10.375,2.375 2.71685,1.57765 4.82245,3.6459 6.3125,6.1875 1.48984,2.54173 2.50528,5.44474 3.03125,8.6875 0.6134,3.24287 0.90614,6.51333 0.90625,9.84375 l 0,43 -17.625,0 0,-38.65625 c -10e-5,-5.52151 -0.94693,-9.55203 -2.875,-12.09375 -1.92825,-2.54161 -4.57588,-3.81244 -7.90625,-3.8125 -3.41819,6e-5 -6.6513,1.34559 -9.71875,4.0625 -3.06761,2.62936 -5.24792,6.11175 -6.5625,10.40625 l 0,40.09375 -17.625,0 0,-38.65625 c -5e-5,-5.52151 -0.94689,-9.55203 -2.875,-12.09375 -1.84057,-2.54161 -4.45083,-3.81244 -7.78125,-3.8125 -3.41814,6e-5 -6.68861,1.30824 -9.84375,3.9375 -3.06756,2.62936 -5.27912,6.0805 -6.59375,10.375 l 0,40.25 -17.59375,0 0,-68.90625 15.90625,0 0,12.75 c 2.54164,-4.46977 5.99278,-7.88355 10.375,-10.25 4.4698,-2.45395 9.55311,-3.68743 15.25,-3.6875 z m -89.1875,15 c -2.5417,5e-5 -4.90269,0.51083 -7.09375,1.5625 -2.19113,1.05177 -4.11605,2.50328 -5.78125,4.34375 -1.57761,1.84057 -2.84845,4.05213 -3.8125,6.59375 -0.87646,2.54171 -1.31252,5.3014 -1.3125,8.28125 -2e-5,3.06756 0.43604,5.86461 1.3125,8.40625 0.96405,2.45405 2.23489,4.597 3.8125,6.4375 1.6652,1.84053 3.59012,3.29204 5.78125,4.34375 2.19106,0.9641 4.55205,1.43752 7.09375,1.4375 2.54163,2e-5 4.90261,-0.4734 7.09375,-1.4375 2.19104,-1.05171 4.07861,-2.50322 5.65625,-4.34375 1.66518,-1.8405 2.93601,-4.0208 3.8125,-6.5625 0.96403,-2.54164 1.43745,-5.36993 1.4375,-8.4375 -5e-5,-2.97985 -0.47347,-5.73954 -1.4375,-8.28125 -0.87649,-2.54163 -2.14732,-4.72194 -3.8125,-6.5625 -1.57764,-1.84047 -3.46521,-3.25462 -5.65625,-4.21875 -2.19114,-1.05167 -4.55212,-1.56245 -7.09375,-1.5625 z"
           style="opacity:0.5;fill:#2e3436;fill-opacity:1;stroke:none;filter:url(#filter4602)" />
        <path
           style="fill:url(#linearGradient4681);fill-opacity:1;stroke:none"
           d="M 28.78125,151.34375 C 9.972941,151.34375 9.75,161.78968 9.75,174.78125 l 0,84.5625 c 0,12.9917 0.222874,23.40625 19.03125,23.40625 l 270.96875,0 c 5.66807,17.84021 -38.65468,19.523 -34.75,50.6875 22.74802,-30.20028 60.31631,-10.07191 73.03125,-50.6875 l 9.96875,0 22.84375,0 c 18.80831,0 19.40625,-10.41455 19.40625,-23.40625 l 0,-84.5625 c 0,-12.99157 -0.59794,-23.4375 -19.40625,-23.4375 l -342.0625,0 z m 37.75,18.0625 c 6.57323,9e-5 12.59727,1.38299 18.03125,4.1875 5.43384,2.71704 10.0811,6.3115 13.9375,10.78125 3.85624,4.46991 6.83396,9.55322 8.9375,15.25 2.10336,5.6969 3.15615,11.50292 3.15625,17.375 -1e-4,6.22275 -1.15885,12.17819 -3.4375,17.875 -2.19118,5.60922 -5.24362,10.58658 -9.1875,14.96875 -3.94405,4.29455 -8.62866,7.77695 -14.0625,10.40625 -5.43397,2.54167 -11.35206,3.8125 -17.75,3.8125 -6.573323,0 -12.597373,-1.30819 -18.03125,-3.9375 -5.433938,-2.71695 -10.118551,-6.27405 -14.0625,-10.65625 -3.856338,-4.46981 -6.83406,-9.55313 -8.9375,-15.25 -2.103456,-5.69681 -3.156254,-11.54018 -3.15625,-17.5 -4e-6,-6.22265 1.090151,-12.17809 3.28125,-17.875 2.278728,-5.69677 5.399767,-10.74273 9.34375,-15.125 4.031591,-4.3821 8.753562,-7.83324 14.1875,-10.375 5.433877,-2.62922 11.35196,-3.93741 17.75,-3.9375 z m -0.25,16.15625 c -4.20695,8e-5 -7.944722,0.94081 -11.1875,2.78125 -3.15521,1.75295 -5.846293,4.11393 -8.125,7.09375 -2.191121,2.8923 -3.860656,6.20013 -5,9.96875 -1.139392,3.6811 -1.718773,7.45622 -1.71875,11.3125 -2.3e-5,4.03165 0.579358,7.95011 1.71875,11.71875 1.226987,3.76871 2.933879,7.07653 5.125,9.96875 2.278706,2.89227 5.038397,5.21589 8.28125,6.96875 3.242778,1.75289 6.91195,2.62502 11.03125,2.625 4.20685,2e-5 7.90727,-0.87211 11.0625,-2.625 3.24276,-1.8405 5.93384,-4.23884 8.125,-7.21875 2.19102,-2.97986 3.86056,-6.31893 5,-10 1.1393,-3.76864 1.71868,-7.58113 1.71875,-11.4375 -7e-5,-4.03156 -0.61681,-7.91877 -1.84375,-11.6875 -1.22708,-3.76862 -2.97133,-7.10769 -5.25,-10 -2.19116,-2.89217 -4.91349,-5.17845 -8.15625,-6.84375 -3.15523,-1.7528 -6.74969,-2.62492 -10.78125,-2.625 z m 81.28125,7.625 c 4.90801,7e-5 9.7733,0.79748 14.59375,2.375 4.908,1.49001 9.48054,3.55825 13.6875,6.1875 l -7.21875,10.90625 c -3.85638,-2.45397 -7.51944,-4.19822 -10.9375,-5.25 -3.41814,-1.13931 -6.83193,-1.7187 -10.25,-1.71875 -3.1552,5e-5 -5.80894,0.6168 -8,1.84375 -2.10348,1.22707 -3.15627,3.18934 -3.15625,5.90625 -2e-5,2.36643 0.98417,4.07332 3,5.125 2.10343,1.05177 5.80384,2.24789 11.0625,3.5625 4.90801,1.22705 9.0506,2.46052 12.46875,3.6875 3.5057,1.22705 6.37135,2.60995 8.5625,4.1875 2.27868,1.57762 3.91085,3.42782 4.875,5.53125 1.05166,2.01583 1.56244,4.45153 1.5625,7.34375 -6e-5,3.33048 -0.69151,6.37681 -2.09375,9.09375 -1.31471,2.71697 -3.20228,5.04059 -5.65625,6.96875 -2.45408,1.84052 -5.46915,3.26078 -9.0625,4.3125 -3.50579,0.96409 -7.42424,1.46875 -11.71875,1.46875 -2.80463,0 -5.74499,-0.21803 -8.8125,-0.65625 -2.97991,-0.43822 -5.92028,-1.05496 -8.8125,-1.84375 -2.89226,-0.78879 -5.65195,-1.76688 -8.28125,-2.90625 -2.62932,-1.13937 -4.95295,-2.41019 -6.96875,-3.8125 l 7.125,-11.96875 c 8.76435,5.69686 17.19286,8.56251 25.34375,8.5625 3.681,1e-5 6.584,-0.65408 8.6875,-1.96875 2.1034,-1.31464 3.1562,-3.20221 3.15625,-5.65625 -5e-5,-2.45401 -1.27088,-4.26686 -3.8125,-5.40625 -2.45407,-1.22699 -6.6279,-2.53517 -12.5,-3.9375 -4.46986,-1.0517 -8.28234,-2.14185 -11.4375,-3.28125 -3.15519,-1.13934 -5.69685,-2.44752 -7.625,-3.9375 -1.92817,-1.48991 -3.31107,-3.1968 -4.1875,-5.125 -0.87644,-1.92812 -1.31251,-4.2144 -1.3125,-6.84375 -1e-5,-3.5057 0.69144,-6.6641 2.09375,-9.46875 1.40229,-2.80454 3.32721,-5.16552 5.78125,-7.09375 2.54165,-2.01574 5.48202,-3.54196 8.8125,-4.59375 3.41808,-1.05166 7.08725,-1.59368 11.03125,-1.59375 z m 73.21875,0.125 c 5.60916,7e-5 10.58652,0.97816 14.96875,2.90625 4.46978,1.92823 8.2449,4.5446 11.3125,7.875 3.1551,3.24287 5.5847,7.01801 7.25,11.3125 1.66516,4.29459 2.49992,8.86713 2.5,13.6875 -8e-5,4.73279 -0.83484,9.23673 -2.5,13.53125 -1.6653,4.29456 -4.05753,8.10705 -7.125,11.4375 -3.06759,3.24283 -6.81148,5.82184 -11.28125,7.75 -4.46988,1.92816 -9.51584,2.90625 -15.125,2.90625 -5.60923,0 -10.65519,-0.97809 -15.125,-2.90625 -4.46985,-1.92816 -8.28234,-4.50717 -11.4375,-7.75 -3.06754,-3.33045 -5.42853,-7.14294 -7.09375,-11.4375 -1.66524,-4.29452 -2.5,-8.79846 -2.5,-13.53125 0,-4.82037 0.83476,-9.39291 2.5,-13.6875 1.66522,-4.29449 4.02621,-8.06963 7.09375,-11.3125 3.15516,-3.3304 6.96765,-5.94677 11.4375,-7.875 4.46981,-1.92809 9.51577,-2.90618 15.125,-2.90625 z m 89.1875,0 c 5.78443,7e-5 10.21365,1.41421 13.28125,4.21875 3.1551,2.80466 5.22335,6.2558 6.1875,10.375 2.80453,-4.7327 6.33038,-8.32716 10.625,-10.78125 4.29446,-2.5416 9.22835,-3.81243 14.75,-3.8125 4.2068,7e-5 7.65795,0.79748 10.375,2.375 2.71685,1.57765 4.82245,3.6459 6.3125,6.1875 1.48984,2.54173 2.50528,5.44474 3.03125,8.6875 0.6134,3.24287 0.90614,6.51333 0.90625,9.84375 l 0,43 -17.625,0 0,-38.65625 c -10e-5,-5.52151 -0.94693,-9.55203 -2.875,-12.09375 -1.92825,-2.54161 -4.57588,-3.81244 -7.90625,-3.8125 -3.41819,6e-5 -6.6513,1.34559 -9.71875,4.0625 -3.06761,2.62936 -5.24792,6.11175 -6.5625,10.40625 l 0,40.09375 -17.625,0 0,-38.65625 c -5e-5,-5.52151 -0.94689,-9.55203 -2.875,-12.09375 -1.84057,-2.54161 -4.45083,-3.81244 -7.78125,-3.8125 -3.41814,6e-5 -6.68861,1.30824 -9.84375,3.9375 -3.06756,2.62936 -5.27912,6.0805 -6.59375,10.375 l 0,40.25 -17.59375,0 0,-68.90625 15.90625,0 0,12.75 c 2.54164,-4.46977 5.99278,-7.88355 10.375,-10.25 4.4698,-2.45395 9.55311,-3.68743 15.25,-3.6875 z m -89.1875,15 c -2.5417,5e-5 -4.90269,0.51083 -7.09375,1.5625 -2.19113,1.05177 -4.11605,2.50328 -5.78125,4.34375 -1.57761,1.84057 -2.84845,4.05213 -3.8125,6.59375 -0.87646,2.54171 -1.31252,5.3014 -1.3125,8.28125 -2e-5,3.06756 0.43604,5.86461 1.3125,8.40625 0.96405,2.45405 2.23489,4.597 3.8125,6.4375 1.6652,1.84053 3.59012,3.29204 5.78125,4.34375 2.19106,0.9641 4.55205,1.43752 7.09375,1.4375 2.54163,2e-5 4.90261,-0.4734 7.09375,-1.4375 2.19104,-1.05171 4.07861,-2.50322 5.65625,-4.34375 1.66518,-1.8405 2.93601,-4.0208 3.8125,-6.5625 0.96403,-2.54164 1.43745,-5.36993 1.4375,-8.4375 -5e-5,-2.97985 -0.47347,-5.73954 -1.4375,-8.28125 -0.87649,-2.54163 -2.14732,-4.72194 -3.8125,-6.5625 -1.57764,-1.84047 -3.46521,-3.25462 -5.65625,-4.21875 -2.19114,-1.05167 -4.55212,-1.56245 -7.09375,-1.5625 z"
           id="path4659"
           inkscape:connector-curvature="0" />
      </g>
    </g>
    <rect
       ry="4.3822007"
       y="-348.72485"
       x="0.09564209"
       height="399.80872"
       width="399.80872"
       id="rect4683"
       style="fill:#000000;fill-opacity:1;stroke:#ff0000;stroke-width:0.19128437;stroke-linecap:round;stroke-linejoin:round;stroke-miterlimit:4;stroke-opacity:1;stroke-dasharray:none;stroke-dashoffset:0" />
    <g
       id="g4702"
       transform="translate(-14.82598,-6.2902858)">
      <path
         inkscape:connector-curvature="0"
         style="fill:#ffffff;fill-opacity:1;stroke:none"
         d="m 43.60722,-271.18352 c -18.80831,0 -19.03125,10.44593 -19.03125,23.4375 l 0,84.5625 c 0,12.9917 0.22287,23.40625 19.03125,23.40625 l 270.96877,0 c 5.668,17.84021 -38.6547,19.523 -34.75,50.6875 22.748,-30.20028 60.3163,-10.07191 73.0312,-50.6875 l 9.9688,0 22.8437,0 c 18.8083,0 19.4063,-10.41455 19.4063,-23.40625 l 0,-84.5625 c 0,-12.99157 -0.598,-23.4375 -19.4063,-23.4375 l -342.06247,0 z"
         id="path4537" />
      <text
         sodipodi:linespacing="125%"
         id="text4539"
         y="-159.13103"
         x="32.463882"
         style="font-size:131.46563721px;font-style:normal;font-variant:normal;font-weight:normal;font-stretch:normal;text-align:start;line-height:125%;letter-spacing:0px;word-spacing:0px;writing-mode:lr-tb;text-anchor:start;fill:#000000;fill-opacity:1;stroke:none;font-family:Special Elite;-inkscape-font-specification:Special Elite"
         xml:space="preserve"
         inkscape:export-filename="/home/levhita/Escritorio/text3052.png"
         inkscape:export-xdpi="157.10283"
         inkscape:export-ydpi="157.10283"><tspan
           style="font-style:normal;font-variant:normal;font-weight:bold;font-stretch:normal;fill:#000000;fill-opacity:1;font-family:Raleway;-inkscape-font-specification:Raleway Bold"
           y="-159.13103"
           x="32.463882"
           id="tspan4541"
           sodipodi:role="line">Osom</tspan></text>
      <text
         xml:space="preserve"
         style="font-size:146.86920166px;font-style:normal;font-variant:normal;font-weight:normal;font-stretch:normal;text-align:start;line-height:125%;letter-spacing:0px;word-spacing:0px;writing-mode:lr-tb;text-anchor:start;fill:#ffffff;fill-opacity:1;stroke:none;font-family:Special Elite;-inkscape-font-specification:Special Elite"
         x="74.228043"
         y="-15.345592"
         id="text4543"
         sodipodi:linespacing="125%"
         inkscape:export-xdpi="157.10283"
         inkscape:export-ydpi="157.10283"><tspan
           sodipodi:role="line"
           id="tspan4545"
           x="74.228043"
           y="-15.345592"
           style="font-style:normal;font-variant:normal;font-weight:bold;font-stretch:normal;fill:#ffffff;fill-opacity:1;font-family:Raleway;-inkscape-font-specification:Raleway Bold"
           dx="0 -37.277077 -12.136715 -6.9352665">Talk</tspan></text>
    </g>
    <g
       id="g4685"
       transform="translate(-929.54161,-441.05469)">
      <path
         id="path4687"
         d="m 477.54556,160.47094 c -18.80831,0 -19.03125,10.44593 -19.03125,23.4375 l 0,84.5625 c 0,12.9917 0.22287,23.40625 19.03125,23.40625 l 270.96877,0 c 5.668,17.84021 -38.6547,19.523 -34.75,50.6875 22.748,-30.20028 60.3163,-10.07191 73.0312,-50.6875 l 9.9688,0 22.8437,0 c 18.8083,0 19.4063,-10.41455 19.4063,-23.40625 l 0,-84.5625 c 0,-12.99157 -0.598,-23.4375 -19.4063,-23.4375 l -342.06247,0 z"
         style="fill:#000000;fill-opacity:1;stroke:none"
         inkscape:connector-curvature="0" />
      <text
         inkscape:export-ydpi="157.10283"
         inkscape:export-xdpi="157.10283"
         inkscape:export-filename="/home/levhita/Escritorio/text3052.png"
         xml:space="preserve"
         style="font-size:131.46563721px;font-style:normal;font-variant:normal;font-weight:normal;font-stretch:normal;text-align:start;line-height:125%;letter-spacing:0px;word-spacing:0px;writing-mode:lr-tb;text-anchor:start;fill:#ffffff;fill-opacity:1;stroke:none;font-family:Special Elite;-inkscape-font-specification:Special Elite"
         x="466.40222"
         y="272.52344"
         id="text4689"
         sodipodi:linespacing="125%"><tspan
           sodipodi:role="line"
           id="tspan4691"
           x="466.40222"
           y="272.52344"
           style="font-style:normal;font-variant:normal;font-weight:bold;font-stretch:normal;fill:#ffffff;font-family:Raleway;-inkscape-font-specification:Raleway Bold">Osom</tspan></text>
      <text
         inkscape:export-ydpi="157.10283"
         inkscape:export-xdpi="157.10283"
         sodipodi:linespacing="125%"
         id="text4693"
         y="416.30887"
         x="508.16638"
         style="font-size:146.86920166px;font-style:normal;font-variant:normal;font-weight:normal;font-stretch:normal;text-align:start;line-height:125%;letter-spacing:0px;word-spacing:0px;writing-mode:lr-tb;text-anchor:start;fill:#000000;fill-opacity:1;stroke:none;font-family:Special Elite;-inkscape-font-specification:Special Elite"
         xml:space="preserve"><tspan
           dx="0 -37.277077 -12.136715 -6.9352665"
           style="font-style:normal;font-variant:normal;font-weight:bold;font-stretch:normal;fill:#000000;fill-opacity:1;font-family:Raleway;-inkscape-font-specification:Raleway Bold"
           y="416.30887"
           x="508.16638"
           id="tspan4695"
           sodipodi:role="line">Talk</tspan></text>
    </g>
  </g>
</svg>
